<?xml version="1.0" encoding="UTF-8"?>
<svg xmlns="http://www.w3.org/2000/svg" xmlns:xlink="http://www.w3.org/1999/xlink" width="23px" height="23px" viewBox="0 0 23 23" version="1.1">
<g id="surface1">
<path style="fill-rule:nonzero;fill:rgb(0%,10.588235%,21.176471%);fill-opacity:1;stroke-width:4.6;stroke-linecap:butt;stroke-linejoin:miter;stroke:rgb(100%,80%,0%);stroke-opacity:1;stroke-miterlimit:4;" d="M 85.59375 44 C 85.59375 66.971467 66.971467 85.59375 44 85.59375 C 21.028533 85.59375 2.40625 66.971467 2.40625 44 C 2.40625 21.028533 21.028533 2.40625 44 2.40625 C 66.971467 2.40625 85.59375 21.028533 85.59375 44 Z M 85.59375 44 " transform="matrix(0.261364,0,0,0.261364,0,0)"/>
<path style=" stroke:none;fill-rule:nonzero;fill:rgb(100%,100%,100%);fill-opacity:1;" d="M 2.785156 13.195312 L 4.46875 11.414062 L 5.484375 12.347656 C 5.300781 10.984375 5.625 9.859375 6.457031 8.980469 C 6.902344 8.511719 7.382812 8.195312 7.902344 8.03125 C 8.425781 7.867188 8.988281 7.859375 9.59375 8.003906 C 9.5 7.316406 9.53125 6.699219 9.6875 6.144531 C 9.84375 5.59375 10.121094 5.105469 10.523438 4.683594 C 11.03125 4.144531 11.570312 3.792969 12.144531 3.625 C 12.714844 3.457031 13.304688 3.480469 13.90625 3.691406 C 14.347656 3.851562 14.921875 4.257812 15.632812 4.910156 L 20.375 9.292969 L 18.546875 11.226562 L 14.304688 7.3125 C 13.570312 6.632812 13.03125 6.257812 12.691406 6.195312 C 12.242188 6.117188 11.839844 6.261719 11.488281 6.632812 C 11.234375 6.90625 11.078125 7.238281 11.019531 7.628906 C 10.960938 8.023438 11.042969 8.421875 11.265625 8.828125 C 11.492188 9.230469 11.953125 9.757812 12.652344 10.402344 L 16.214844 13.691406 L 14.382812 15.625 L 10.316406 11.871094 C 9.597656 11.207031 9.097656 10.808594 8.824219 10.683594 C 8.546875 10.5625 8.292969 10.523438 8.050781 10.574219 C 7.8125 10.625 7.574219 10.773438 7.339844 11.019531 C 7.058594 11.320312 6.886719 11.664062 6.824219 12.050781 C 6.761719 12.441406 6.835938 12.828125 7.042969 13.214844 C 7.253906 13.601562 7.714844 14.125 8.429688 14.78125 L 12.03125 18.109375 L 10.203125 20.046875 Z M 2.785156 13.195312 "/>
</g>
</svg>
